<?xml version="1.0" encoding="utf-8"?>
<!-- Generator: Adobe Illustrator 22.1.0, SVG Export Plug-In . SVG Version: 6.00 Build 0)  -->
<svg version="1.1" id="logo2bis" xmlns="http://www.w3.org/2000/svg" xmlns:xlink="http://www.w3.org/1999/xlink" x="0px" y="0px"
	 viewBox="0 0 141.7 141.7" style="enable-background:new 0 0 141.7 141.7;" xml:space="preserve">
<style type="text/css">
	.st0{fill:orange;}
</style>
<g>
	<g>
		<g>
			<polygon class="st0" points="125.6,102.4 125.6,91.9 107.4,81.4 125.6,70.9 125.6,49.8 80,76.1 80,76.1 80,128.8 98.2,118.3 
				98.2,97.1 116.5,107.7 125.6,102.5 			"/>
		</g>
		<g>
			<polygon class="st0" points="70.8,60.4 25.2,34.1 43.4,23.5 61.6,34 61.6,13 70.7,7.8 70.8,7.7 79.9,13 79.9,34.1 98.2,23.5 
				116.4,34.1 			"/>
			<polygon class="st0" points="16.1,102.5 25.2,107.7 43.4,97.2 43.4,118.3 61.6,128.8 61.6,76.1 61.6,76.1 16,49.8 16,70.9 
				34.3,81.4 16,92 16,102.4 			"/>
		</g>
	</g>
</g>
</svg>
